<?xml version="1.0" encoding="UTF-8" standalone="no"?>
<!-- Created with Inkscape (http://www.inkscape.org/) -->

<svg
   width="1920"
   height="1080"
   viewBox="0 0 1920 1080"
   version="1.1"
   id="svg5"
   inkscape:version="1.2.1 (9c6d41e410, 2022-07-14, custom)"
   sodipodi:docname="track1.svg"
   xmlns:inkscape="http://www.inkscape.org/namespaces/inkscape"
   xmlns:sodipodi="http://sodipodi.sourceforge.net/DTD/sodipodi-0.dtd"
   xmlns="http://www.w3.org/2000/svg"
   xmlns:svg="http://www.w3.org/2000/svg">
  <sodipodi:namedview
     id="namedview7"
     pagecolor="#505050"
     bordercolor="#eeeeee"
     borderopacity="1"
     inkscape:showpageshadow="0"
     inkscape:pageopacity="0"
     inkscape:pagecheckerboard="0"
     inkscape:deskcolor="#505050"
     inkscape:document-units="px"
     showgrid="false"
     inkscape:zoom="0.51822917"
     inkscape:cx="479.51759"
     inkscape:cy="627.13568"
     inkscape:window-width="3836"
     inkscape:window-height="2126"
     inkscape:window-x="2160"
     inkscape:window-y="1005"
     inkscape:window-maximized="1"
     inkscape:current-layer="layer1" />
  <defs
     id="defs2" />
  <g
     inkscape:label="Layer 1"
     inkscape:groupmode="layer"
     id="layer1">
    <path
       style="fill:none;stroke:#000000;stroke-width:1px;stroke-linecap:butt;stroke-linejoin:miter;stroke-opacity:1"
       d="M 28.444967,82.059634 C -21.61844,152.26661 22.215089,282.41575 32.768324,358.04138 43.321559,433.66701 65.11809,564.21082 139.22535,598.52285 c 74.10725,34.31203 192.30245,13.94331 262.4258,-23.56164 70.12335,-37.50494 145.35537,-144.82125 198.10717,-105.35274 52.75181,39.46852 100.74027,153.64742 44.70862,169.48151 -56.03164,15.83409 -266.47377,29.27615 -326.16449,23.22173 -59.69072,-6.05441 -146.49827,51.32766 -166.45831,71.31879 -19.96003,19.99112 -52.359608,129.62492 -46.55629,158.73052 5.80331,29.10561 -5.861735,137.93448 78.03792,162.78678 83.89965,24.8522 1482.38373,-2.9138 1524.60793,-4.5038 42.2243,-1.59 144.3849,-124.10686 135.5955,-232.30732 -8.7894,-108.20045 -35.1963,-434.36789 -182.4158,-481.21227 -147.2196,-46.84438 -258.8831,296.37567 -380.592,168.5996 C 1158.8124,377.94794 1261.5315,296.0996 1296.798,252.07373 1332.0645,208.04786 1387.1881,64.655465 1205.8926,22.204499 1024.597,-20.246467 364.71835,9.2369098 279.94127,17.694127 195.9814,29.09595 97.361743,13.142858 28.444967,82.059634 Z"
       id="path236"
       sodipodi:nodetypes="cssssssssssssssscc" />
    <path
       style="fill:none;stroke:#000000;stroke-width:1px;stroke-linecap:butt;stroke-linejoin:miter;stroke-opacity:1"
       d="m 474.65978,147.02049 c -59.02646,2.00997 -140.05449,-4.19342 -163.21992,40.96204 -23.16544,45.15546 -67.89338,184.81635 -50.94394,195.7699 16.94943,10.95356 34.21285,38.36066 129.09186,-19.45041 36.42888,-22.19661 41.66247,-77.51886 122.42808,-124.14891 76.89118,-44.39314 193.81564,-40.2827 251.82051,27.45579 58.00487,67.7385 95.26064,129.27522 107.80473,203.39075 21.47458,126.88051 -2.15272,238.42945 -6.09917,264.73198 -3.94645,26.30253 -54.11474,80.05144 -179.08441,103.8187 -109.319,20.79074 -334.53915,-38.1213 -355.8432,7.54146 -31.47425,67.4614 79.6835,75.92996 219.31611,84.47322 139.63262,8.54327 870.05697,-1.04635 895.13017,-1.94966 195.9818,-7.0607 169.0958,-322.33136 137.7226,-326.23293 -76.6706,-9.53475 -56.4406,151.52155 -230.9638,137.15119 -174.5232,-14.37037 -308.3543,-132.80667 -333.725,-228.83103 -25.50642,-96.53809 -46.4025,-161.63042 16.2571,-242.71558 61.0733,-79.03233 119.6787,-71.69597 106.9942,-123.39737 -17.1519,-69.910322 -666.68592,1.43086 -666.68592,1.43086 z"
       id="path383"
       sodipodi:nodetypes="cssssssssssssssssc" />
  </g>
</svg>
