<?xml version="1.0" encoding="us-ascii" standalone="no"?><svg xmlns="http://www.w3.org/2000/svg" xmlns:xlink="http://www.w3.org/1999/xlink" contentStyleType="text/css" height="426px" preserveAspectRatio="none" style="width:456px;height:426px;background:#FFFFFF;" version="1.1" viewBox="0 0 456 426" width="456px" zoomAndPan="magnify"><defs/><g><!--cluster CG Racer--><g id="cluster_CG Racer"><path d="M8.5,6.602 L70.5,6.602 A3.75,3.75 0 0 1 73,9.102 L80,31.6699 L333.5,31.6699 A2.5,2.5 0 0 1 336,34.1699 L336,325.302 A2.5,2.5 0 0 1 333.5,327.802 L8.5,327.802 A2.5,2.5 0 0 1 6,325.302 L6,9.102 A2.5,2.5 0 0 1 8.5,6.602 " fill="none" style="stroke:#000000;stroke-width:1.5;"/><line style="stroke:#000000;stroke-width:1.5;" x1="6" x2="80" y1="31.6699" y2="31.6699"/><text fill="#000000" font-family="sans-serif" font-size="14" font-weight="bold" lengthAdjust="spacing" textLength="61" x="10" y="23.5679">CG Racer</text></g><!--entity spaceracer--><g id="elem_spaceracer"><rect fill="#F1F1F1" height="49.0679" rx="2.5" ry="2.5" style="stroke:#181818;stroke-width:0.5;" width="114" x="158" y="44.602"/><rect fill="#F1F1F1" height="10" style="stroke:#181818;stroke-width:0.5;" width="15" x="252" y="49.602"/><rect fill="#F1F1F1" height="2" style="stroke:#181818;stroke-width:0.5;" width="4" x="250" y="51.602"/><rect fill="#F1F1F1" height="2" style="stroke:#181818;stroke-width:0.5;" width="4" x="250" y="55.602"/><text fill="#000000" font-family="sans-serif" font-size="14" lengthAdjust="spacing" textLength="74" x="173" y="79.5679">spaceracer</text></g><!--entity window--><g id="elem_window"><rect fill="#F1F1F1" height="49.0679" rx="2.5" ry="2.5" style="stroke:#181818;stroke-width:0.5;" width="92" x="135" y="262.732"/><rect fill="#F1F1F1" height="10" style="stroke:#181818;stroke-width:0.5;" width="15" x="207" y="267.732"/><rect fill="#F1F1F1" height="2" style="stroke:#181818;stroke-width:0.5;" width="4" x="205" y="269.732"/><rect fill="#F1F1F1" height="2" style="stroke:#181818;stroke-width:0.5;" width="4" x="205" y="273.732"/><text fill="#000000" font-family="sans-serif" font-size="14" lengthAdjust="spacing" textLength="52" x="150" y="297.6979">window</text></g><!--entity input--><g id="elem_input"><rect fill="#F1F1F1" height="49.0679" rx="2.5" ry="2.5" style="stroke:#181818;stroke-width:0.5;" width="76" x="244" y="153.672"/><rect fill="#F1F1F1" height="10" style="stroke:#181818;stroke-width:0.5;" width="15" x="300" y="158.672"/><rect fill="#F1F1F1" height="2" style="stroke:#181818;stroke-width:0.5;" width="4" x="298" y="160.672"/><rect fill="#F1F1F1" height="2" style="stroke:#181818;stroke-width:0.5;" width="4" x="298" y="164.672"/><text fill="#000000" font-family="sans-serif" font-size="14" lengthAdjust="spacing" textLength="36" x="259" y="188.6379">input</text></g><!--entity player--><g id="elem_player"><rect fill="#F1F1F1" height="49.0679" rx="2.5" ry="2.5" style="stroke:#181818;stroke-width:0.5;" width="82" x="127" y="153.672"/><rect fill="#F1F1F1" height="10" style="stroke:#181818;stroke-width:0.5;" width="15" x="189" y="158.672"/><rect fill="#F1F1F1" height="2" style="stroke:#181818;stroke-width:0.5;" width="4" x="187" y="160.672"/><rect fill="#F1F1F1" height="2" style="stroke:#181818;stroke-width:0.5;" width="4" x="187" y="164.672"/><text fill="#000000" font-family="sans-serif" font-size="14" lengthAdjust="spacing" textLength="42" x="142" y="188.6379">player</text></g><!--entity game--><g id="elem_game"><rect fill="#F1F1F1" height="49.0679" rx="2.5" ry="2.5" style="stroke:#181818;stroke-width:0.5;" width="78" x="22" y="262.732"/><rect fill="#F1F1F1" height="10" style="stroke:#181818;stroke-width:0.5;" width="15" x="80" y="267.732"/><rect fill="#F1F1F1" height="2" style="stroke:#181818;stroke-width:0.5;" width="4" x="78" y="269.732"/><rect fill="#F1F1F1" height="2" style="stroke:#181818;stroke-width:0.5;" width="4" x="78" y="273.732"/><text fill="#000000" font-family="sans-serif" font-size="14" lengthAdjust="spacing" textLength="38" x="37" y="297.6979">game</text></g><!--entity map--><g id="elem_map"><rect fill="#F1F1F1" height="49.0679" rx="2.5" ry="2.5" style="stroke:#181818;stroke-width:0.5;" width="70" x="22" y="153.672"/><rect fill="#F1F1F1" height="10" style="stroke:#181818;stroke-width:0.5;" width="15" x="72" y="158.672"/><rect fill="#F1F1F1" height="2" style="stroke:#181818;stroke-width:0.5;" width="4" x="70" y="160.672"/><rect fill="#F1F1F1" height="2" style="stroke:#181818;stroke-width:0.5;" width="4" x="70" y="164.672"/><text fill="#000000" font-family="sans-serif" font-size="14" lengthAdjust="spacing" textLength="30" x="37" y="188.6379">map</text></g><!--entity GLFW--><g id="elem_GLFW"><rect fill="#F1F1F1" height="49.0679" rx="2.5" ry="2.5" style="stroke:#181818;stroke-width:0.5;" width="77" x="142.5" y="371.802"/><rect fill="#F1F1F1" height="10" style="stroke:#181818;stroke-width:0.5;" width="15" x="199.5" y="376.802"/><rect fill="#F1F1F1" height="2" style="stroke:#181818;stroke-width:0.5;" width="4" x="197.5" y="378.802"/><rect fill="#F1F1F1" height="2" style="stroke:#181818;stroke-width:0.5;" width="4" x="197.5" y="382.802"/><text fill="#000000" font-family="sans-serif" font-size="14" lengthAdjust="spacing" textLength="37" x="157.5" y="406.7679">GLFW</text></g><!--entity OPENGL--><g id="elem_OPENGL"><rect fill="#F1F1F1" height="49.0679" rx="2.5" ry="2.5" style="stroke:#181818;stroke-width:0.5;" width="95" x="355.5" y="153.672"/><rect fill="#F1F1F1" height="10" style="stroke:#181818;stroke-width:0.5;" width="15" x="430.5" y="158.672"/><rect fill="#F1F1F1" height="2" style="stroke:#181818;stroke-width:0.5;" width="4" x="428.5" y="160.672"/><rect fill="#F1F1F1" height="2" style="stroke:#181818;stroke-width:0.5;" width="4" x="428.5" y="164.672"/><text fill="#000000" font-family="sans-serif" font-size="14" lengthAdjust="spacing" textLength="55" x="370.5" y="188.6379">OPENGL</text></g><!--link spaceracer to player--><g id="link_spaceracer_player"><path d="M204.45,94.162 C196.71,111.792 188.6516,130.148 180.9216,147.758 " fill="none" id="spaceracer-to-player" style="stroke:#181818;stroke-width:1.0;"/><polygon fill="#181818" points="178.51,153.252,185.7901,146.6187,180.5197,148.6736,178.4648,143.4032,178.51,153.252" style="stroke:#181818;stroke-width:1.0;"/></g><!--link spaceracer to map--><g id="link_spaceracer_map"><path d="M179.54,94.162 C153.52,111.792 123.2972,132.2764 97.3072,149.8864 " fill="none" id="spaceracer-to-map" style="stroke:#181818;stroke-width:1.0;"/><polygon fill="#181818" points="92.34,153.252,102.0345,151.515,96.4793,150.4473,97.547,144.8921,92.34,153.252" style="stroke:#181818;stroke-width:1.0;"/></g><!--link spaceracer to input--><g id="link_spaceracer_input"><path d="M230.04,94.162 C241.07,111.792 252.8072,130.5558 263.8272,148.1658 " fill="none" id="spaceracer-to-input" style="stroke:#181818;stroke-width:1.0;"/><polygon fill="#181818" points="267.01,153.252,265.6265,143.5008,264.3576,149.0135,258.8449,147.7446,267.01,153.252" style="stroke:#181818;stroke-width:1.0;"/></g><!--link spaceracer to OPENGL--><g id="link_spaceracer_OPENGL"><path d="M257.19,94.162 C288.15,111.792 324.8059,132.6733 355.7359,150.2833 " fill="none" id="spaceracer-to-OPENGL" style="stroke:#181818;stroke-width:1.0;"/><polygon fill="#181818" points="360.95,153.252,355.1079,145.3229,356.6049,150.7781,351.1497,152.2751,360.95,153.252" style="stroke:#181818;stroke-width:1.0;"/></g><!--link input to window--><g id="link_input_window"><path d="M259.33,203.232 C242.7,220.862 224.3282,240.3485 207.7082,257.9585 " fill="none" id="input-to-window" style="stroke:#181818;stroke-width:1.0;"/><polygon fill="#181818" points="203.59,262.322,212.6763,258.5222,207.0218,258.6857,206.8583,253.0312,203.59,262.322" style="stroke:#181818;stroke-width:1.0;"/></g><!--link window to GLFW--><g id="link_window_GLFW"><path d="M181,312.302 C181,329.932 181,347.772 181,365.392 " fill="none" id="window-to-GLFW" style="stroke:#181818;stroke-width:1.0;"/><polygon fill="#181818" points="181,371.392,185,362.392,181,366.392,177,362.392,181,371.392" style="stroke:#181818;stroke-width:1.0;"/></g><!--link player to game--><g id="link_player_game"><path d="M143.99,203.232 C126.37,220.862 106.7826,240.4693 89.1726,258.0793 " fill="none" id="player-to-game" style="stroke:#181818;stroke-width:1.0;"/><polygon fill="#181818" points="84.93,262.322,94.1224,258.7864,88.4655,258.7864,88.4655,253.1296,84.93,262.322" style="stroke:#181818;stroke-width:1.0;"/></g><!--link player to window--><g id="link_player_window"><path d="M170.92,203.232 C173.06,220.862 175.2262,238.7558 177.3662,256.3658 " fill="none" id="player-to-window" style="stroke:#181818;stroke-width:1.0;"/><polygon fill="#181818" points="178.09,262.322,180.9751,252.9052,177.4868,257.3585,173.0335,253.8702,178.09,262.322" style="stroke:#181818;stroke-width:1.0;"/></g><!--link map to game--><g id="link_map_game"><path d="M57.9,203.232 C58.56,220.862 59.2253,238.7162 59.8853,256.3262 " fill="none" id="map-to-game" style="stroke:#181818;stroke-width:1.0;"/><polygon fill="#181818" points="60.11,262.322,63.7701,253.1785,59.9227,257.3255,55.7757,253.4781,60.11,262.322" style="stroke:#181818;stroke-width:1.0;"/></g><!--link map to window--><g id="link_map_window"><path d="M84.83,203.232 C105.25,220.862 128.3182,240.7913 148.7182,258.4013 " fill="none" id="map-to-window" style="stroke:#181818;stroke-width:1.0;"/><polygon fill="#181818" points="153.26,262.322,149.061,253.4131,149.4751,259.0548,143.8335,259.4689,153.26,262.322" style="stroke:#181818;stroke-width:1.0;"/></g><!--SRC=[AqXCpavCJrLGSdPN24fCJYrIKgZcKb28BYu0SK0u5iGjpynBoIy7CpFp2afBmAo2dCHAg7nwOcugc96RM13BLSl55UtkunOU2wJz0rpzt7r0B2GZ5NHrxH3wCMN0fc0AGwt68WEtXGkg228CSpQC0H65EGrgFqGGuWDKCPXsBh23KDGX1E2A0000]--></g></svg>