<?xml version="1.0" encoding="us-ascii" standalone="no"?><svg xmlns="http://www.w3.org/2000/svg" xmlns:xlink="http://www.w3.org/1999/xlink" contentStyleType="text/css" height="426px" preserveAspectRatio="none" style="width:382px;height:426px;background:#FFFFFF;" version="1.1" viewBox="0 0 382 426" width="382px" zoomAndPan="magnify"><defs/><g><!--cluster CG Racer--><g id="cluster_CG Racer"><path d="M8.5,6.602 L70.5,6.602 A3.75,3.75 0 0 1 73,9.102 L80,31.6699 L333.5,31.6699 A2.5,2.5 0 0 1 336,34.1699 L336,325.302 A2.5,2.5 0 0 1 333.5,327.802 L8.5,327.802 A2.5,2.5 0 0 1 6,325.302 L6,9.102 A2.5,2.5 0 0 1 8.5,6.602 " fill="none" style="stroke:#000000;stroke-width:1.5;"/><line style="stroke:#000000;stroke-width:1.5;" x1="6" x2="80" y1="31.6699" y2="31.6699"/><text fill="#000000" font-family="sans-serif" font-size="14" font-weight="bold" lengthAdjust="spacing" textLength="61" x="10" y="23.5679">CG Racer</text></g><!--entity spaceracer--><g id="elem_spaceracer"><rect fill="#F1F1F1" height="49.0679" rx="2.5" ry="2.5" style="stroke:#181818;stroke-width:0.5;" width="114" x="158" y="44.602"/><rect fill="#F1F1F1" height="10" style="stroke:#181818;stroke-width:0.5;" width="15" x="252" y="49.602"/><rect fill="#F1F1F1" height="2" style="stroke:#181818;stroke-width:0.5;" width="4" x="250" y="51.602"/><rect fill="#F1F1F1" height="2" style="stroke:#181818;stroke-width:0.5;" width="4" x="250" y="55.602"/><text fill="#000000" font-family="sans-serif" font-size="14" lengthAdjust="spacing" textLength="74" x="173" y="79.5679">spaceracer</text></g><!--entity window--><g id="elem_window"><rect fill="#F1F1F1" height="49.0679" rx="2.5" ry="2.5" style="stroke:#181818;stroke-width:0.5;" width="92" x="114" y="262.732"/><rect fill="#F1F1F1" height="10" style="stroke:#181818;stroke-width:0.5;" width="15" x="186" y="267.732"/><rect fill="#F1F1F1" height="2" style="stroke:#181818;stroke-width:0.5;" width="4" x="184" y="269.732"/><rect fill="#F1F1F1" height="2" style="stroke:#181818;stroke-width:0.5;" width="4" x="184" y="273.732"/><text fill="#000000" font-family="sans-serif" font-size="14" lengthAdjust="spacing" textLength="52" x="129" y="297.6979">window</text></g><!--entity input--><g id="elem_input"><rect fill="#F1F1F1" height="49.0679" rx="2.5" ry="2.5" style="stroke:#181818;stroke-width:0.5;" width="76" x="22" y="153.672"/><rect fill="#F1F1F1" height="10" style="stroke:#181818;stroke-width:0.5;" width="15" x="78" y="158.672"/><rect fill="#F1F1F1" height="2" style="stroke:#181818;stroke-width:0.5;" width="4" x="76" y="160.672"/><rect fill="#F1F1F1" height="2" style="stroke:#181818;stroke-width:0.5;" width="4" x="76" y="164.672"/><text fill="#000000" font-family="sans-serif" font-size="14" lengthAdjust="spacing" textLength="36" x="37" y="188.6379">input</text></g><!--entity player--><g id="elem_player"><rect fill="#F1F1F1" height="49.0679" rx="2.5" ry="2.5" style="stroke:#181818;stroke-width:0.5;" width="82" x="238" y="153.672"/><rect fill="#F1F1F1" height="10" style="stroke:#181818;stroke-width:0.5;" width="15" x="300" y="158.672"/><rect fill="#F1F1F1" height="2" style="stroke:#181818;stroke-width:0.5;" width="4" x="298" y="160.672"/><rect fill="#F1F1F1" height="2" style="stroke:#181818;stroke-width:0.5;" width="4" x="298" y="164.672"/><text fill="#000000" font-family="sans-serif" font-size="14" lengthAdjust="spacing" textLength="42" x="253" y="188.6379">player</text></g><!--entity game--><g id="elem_game"><rect fill="#F1F1F1" height="49.0679" rx="2.5" ry="2.5" style="stroke:#181818;stroke-width:0.5;" width="78" x="241" y="262.732"/><rect fill="#F1F1F1" height="10" style="stroke:#181818;stroke-width:0.5;" width="15" x="299" y="267.732"/><rect fill="#F1F1F1" height="2" style="stroke:#181818;stroke-width:0.5;" width="4" x="297" y="269.732"/><rect fill="#F1F1F1" height="2" style="stroke:#181818;stroke-width:0.5;" width="4" x="297" y="273.732"/><text fill="#000000" font-family="sans-serif" font-size="14" lengthAdjust="spacing" textLength="38" x="256" y="297.6979">game</text></g><!--entity map--><g id="elem_map"><rect fill="#F1F1F1" height="49.0679" rx="2.5" ry="2.5" style="stroke:#181818;stroke-width:0.5;" width="70" x="133" y="153.672"/><rect fill="#F1F1F1" height="10" style="stroke:#181818;stroke-width:0.5;" width="15" x="183" y="158.672"/><rect fill="#F1F1F1" height="2" style="stroke:#181818;stroke-width:0.5;" width="4" x="181" y="160.672"/><rect fill="#F1F1F1" height="2" style="stroke:#181818;stroke-width:0.5;" width="4" x="181" y="164.672"/><text fill="#000000" font-family="sans-serif" font-size="14" lengthAdjust="spacing" textLength="30" x="148" y="188.6379">map</text></g><!--entity GLFW--><g id="elem_GLFW"><rect fill="#F1F1F1" height="49.0679" rx="2.5" ry="2.5" style="stroke:#181818;stroke-width:0.5;" width="77" x="121.5" y="371.802"/><rect fill="#F1F1F1" height="10" style="stroke:#181818;stroke-width:0.5;" width="15" x="178.5" y="376.802"/><rect fill="#F1F1F1" height="2" style="stroke:#181818;stroke-width:0.5;" width="4" x="176.5" y="378.802"/><rect fill="#F1F1F1" height="2" style="stroke:#181818;stroke-width:0.5;" width="4" x="176.5" y="382.802"/><text fill="#000000" font-family="sans-serif" font-size="14" lengthAdjust="spacing" textLength="37" x="136.5" y="406.7679">GLFW</text></g><!--entity OpenGl--><g id="elem_OpenGl"><rect fill="#F1F1F1" height="49.0679" rx="2.5" ry="2.5" style="stroke:#181818;stroke-width:0.5;" width="91" x="280.5" y="371.802"/><rect fill="#F1F1F1" height="10" style="stroke:#181818;stroke-width:0.5;" width="15" x="351.5" y="376.802"/><rect fill="#F1F1F1" height="2" style="stroke:#181818;stroke-width:0.5;" width="4" x="349.5" y="378.802"/><rect fill="#F1F1F1" height="2" style="stroke:#181818;stroke-width:0.5;" width="4" x="349.5" y="382.802"/><text fill="#000000" font-family="sans-serif" font-size="14" lengthAdjust="spacing" textLength="51" x="295.5" y="406.7679">OpenGl</text></g><!--link spaceracer to player--><g id="link_spaceracer_player"><path d="M229.36,94.162 C239.9,111.792 251.0808,130.4924 261.6108,148.1024 " fill="none" id="spaceracer-to-player" style="stroke:#181818;stroke-width:1.0;"/><polygon fill="#181818" points="264.69,153.252,263.5042,143.4748,262.124,148.9607,256.6381,147.5804,264.69,153.252" style="stroke:#181818;stroke-width:1.0;"/></g><!--link spaceracer to map--><g id="link_spaceracer_map"><path d="M204.45,94.162 C196.71,111.792 188.6516,130.148 180.9216,147.758 " fill="none" id="spaceracer-to-map" style="stroke:#181818;stroke-width:1.0;"/><polygon fill="#181818" points="178.51,153.252,185.7901,146.6187,180.5197,148.6736,178.4648,143.4032,178.51,153.252" style="stroke:#181818;stroke-width:1.0;"/></g><!--link spaceracer to input--><g id="link_spaceracer_input"><path d="M180.21,94.162 C154.69,111.792 125.1071,132.2325 99.6071,149.8425 " fill="none" id="spaceracer-to-input" style="stroke:#181818;stroke-width:1.0;"/><polygon fill="#181818" points="94.67,153.252,104.3487,151.4291,98.7843,150.4107,99.8027,144.8463,94.67,153.252" style="stroke:#181818;stroke-width:1.0;"/></g><!--link spaceracer to OpenGl--><g id="link_spaceracer_OpenGl"><path d="M272.23,93.842 C297.19,107.402 323.92,127.092 338,153.672 C375.95,225.312 351.7596,320.6006 336.6196,365.9606 " fill="none" id="spaceracer-to-OpenGl" style="stroke:#181818;stroke-width:1.0;"/><polygon fill="#181818" points="334.72,371.652,341.3637,364.3814,336.303,366.9092,333.7752,361.8485,334.72,371.652" style="stroke:#181818;stroke-width:1.0;"/></g><!--link window to OpenGl--><g id="link_window_OpenGl"><path d="M190.76,312.182 C201.14,319.972 212.91,328.482 224,335.802 C242.74,348.172 258.8995,357.877 277.2195,368.337 " fill="none" id="window-to-OpenGl" style="stroke:#181818;stroke-width:1.0;"/><polygon fill="#181818" points="282.43,371.312,276.5976,363.3758,278.0879,368.8328,272.6309,370.3232,282.43,371.312" style="stroke:#181818;stroke-width:1.0;"/></g><!--link input to window--><g id="link_input_window"><path d="M82.44,203.232 C98.91,220.862 117.0842,240.3274 133.5342,257.9374 " fill="none" id="input-to-window" style="stroke:#181818;stroke-width:1.0;"/><polygon fill="#181818" points="137.63,262.322,134.4094,253.0146,134.2169,258.6682,128.5633,258.4756,137.63,262.322" style="stroke:#181818;stroke-width:1.0;"/></g><!--link window to GLFW--><g id="link_window_GLFW"><path d="M160,312.302 C160,329.932 160,347.772 160,365.392 " fill="none" id="window-to-GLFW" style="stroke:#181818;stroke-width:1.0;"/><polygon fill="#181818" points="160,371.392,164,362.392,160,366.392,156,362.392,160,371.392" style="stroke:#181818;stroke-width:1.0;"/></g><!--link player to game--><g id="link_player_game"><path d="M279.22,203.232 C279.39,220.862 279.5521,238.7123 279.7221,256.3223 " fill="none" id="player-to-game" style="stroke:#181818;stroke-width:1.0;"/><polygon fill="#181818" points="279.78,262.322,283.6929,253.2838,279.7317,257.3222,275.6933,253.361,279.78,262.322" style="stroke:#181818;stroke-width:1.0;"/></g><!--link player to window--><g id="link_player_window"><path d="M252.29,203.232 C232.7,220.862 210.6501,240.6986 191.0801,258.3086 " fill="none" id="player-to-window" style="stroke:#181818;stroke-width:1.0;"/><polygon fill="#181818" points="186.62,262.322,195.9858,259.2753,190.3368,258.9775,190.6346,253.3285,186.62,262.322" style="stroke:#181818;stroke-width:1.0;"/></g><!--link map to game--><g id="link_map_game"><path d="M193.13,203.232 C211.58,220.862 232.182,240.5669 250.612,258.1769 " fill="none" id="map-to-game" style="stroke:#181818;stroke-width:1.0;"/><polygon fill="#181818" points="254.95,262.322,251.2063,253.2124,251.335,258.8678,245.6796,258.9965,254.95,262.322" style="stroke:#181818;stroke-width:1.0;"/></g><!--link map to window--><g id="link_map_window"><path d="M166.2,203.232 C164.89,220.862 163.5585,238.7288 162.2385,256.3388 " fill="none" id="map-to-window" style="stroke:#181818;stroke-width:1.0;"/><polygon fill="#181818" points="161.79,262.322,166.4515,253.6462,162.1637,257.336,158.4739,253.0482,161.79,262.322" style="stroke:#181818;stroke-width:1.0;"/></g><!--SRC=[AqXCpavCJrLGSdPN24fCJYrIKgZcKb28BYu0SK0u5iGjpynBoIy7CpFp2afBmAo2dCHAg7nwOcugc96RM13BLSl55UtkunOU2wJz2rBpt7D0B2GZ5NHrxH3wCMN0fc0AGwt68eEm1UfIT668LeWep3EeQc4EXheA8WZn5weOJ3iNs9aewX02S4K0]--></g></svg>